<?xml version="1.0" encoding="utf-8"?>
<svg xmlns="http://www.w3.org/2000/svg" viewBox="0 0 500 500" style="isolation: isolate; mix-blend-mode: darken; filter: none;" xmlns:bx="https://boxy-svg.com" width="100px" height="100px">
  <defs>
    <bx:export>
      <bx:file format="svg"/>
    </bx:export>
  </defs>
  <g id="Capa_1" transform="matrix(1, 0, 0, 1, 27.429102, 90.987916)">
    <g id="SVGRepo_tracerCarrier" stroke-linecap="round" stroke-linejoin="round" transform="matrix(1, 0, 0, 1, 10.833113, -14.314779)"/>
    <g id="SVGRepo_iconCarrier" transform="matrix(1, 0, 0, 1, 10.833113, -14.314779)">
      <g>
        <g transform="matrix(1, 0, 0, 1, 38.650448, -7.562027)"/>
      </g>
    </g>
    <path style="stroke: rgba(255,255,255,0.25); stroke-width: 4; fill: none;" d="M 144.546 7.021 C 132.772 12.062 117.23 23.837 108.416 35.589 C 86.426 64.908 87.746 115.679 116.818 138.937 C 144.699 161.241 176.445 137.547 202.521 128.854 C 232.69 118.798 264.867 117.876 285.704 145.659 C 325.003 198.057 270.662 264.898 232.77 298.58 C 219.158 310.679 212.875 317.905 185.717 334.71"/>
  </g>
  <path d="M 178.872 66.662 Q 180.002 62.575 181.131 66.662 L 187.695 90.417 Q 188.824 94.504 186.565 94.504 L 173.438 94.504 Q 171.179 94.504 172.308 90.417 Z"
    bx:shape="triangle 171.179 62.575 17.645 31.929 0.5 0.128 1@44e6a6fc"
    style="stroke: rgba(255,255,255,0.25); fill: rgba(255,255,255,0.25); transform-box: fill-box; transform-origin: 50% 50%;"
    transform="matrix(0.414966, 0.909837, -0.909837, 0.414966, -0.384112, 14.596563)"
  />
</svg>