<?xml version="1.0" encoding="utf-8"?>
<svg xmlns="http://www.w3.org/2000/svg" viewBox="306.3288 89.1411 113.8617 196.699" width="113.862px" height="196.699px" xmlns:bx="https://boxy-svg.com">
  <g id="Capa_1" transform="matrix(1, 0, 0, 1, -62.04334351484985, 95.51994466066265)">
    <g id="SVGRepo_tracerCarrier" stroke-linecap="round" stroke-linejoin="round" transform="matrix(1, 0, 0, 1, 10.833113, -14.314779)"/>
    <g id="SVGRepo_iconCarrier" transform="matrix(1, 0, 0, 1, 10.833113, -14.314779)">
      <g>
        <g transform="matrix(1, 0, 0, 1, 38.650448, -7.562027)"/>
      </g>
    </g>
    <path style="stroke: rgba(255, 255, 255, 0.25); stroke-width: 3; fill: none; transform-box: fill-box; transform-origin: 50% 50%;" d="M 349.928 330.571 C 338.253 325.53 289.742 299.424 276.364 279.554 C 260.238 255.603 286.723 196.773 347.354 220.443 C 360.202 225.459 390.179 225.522 384.993 193.058 C 379.641 159.55 300.41 177.254 293.729 151.411" transform="matrix(-1, 0, 0, -1, 96.644344, -140.250979)"/>
  </g>
  <path d="M 178.872 66.662 Q 180.002 62.575 181.131 66.662 L 187.695 90.417 Q 188.824 94.504 186.565 94.504 L 173.438 94.504 Q 171.179 94.504 172.308 90.417 Z" bx:shape="triangle 171.179 62.575 17.645 31.929 0.5 0.128 1@44e6a6fc" style="stroke: rgba(255, 255, 255, 0.25); fill: rgba(255, 255, 255, 0.25); stroke-width: 1;" transform="matrix(0.44910699129104614, -0.8934779167175293, 0.8934779167175293, 0.44910699129104614, 184.59605682784405, 228.1579166078256)" id="object-0"/>
</svg>