<?xml version="1.0" encoding="utf-8"?>
<!-- Generator: Adobe Illustrator 23.0.2, SVG Export Plug-In . SVG Version: 6.00 Build 0)  -->
<svg version="1.1" id="Layer_1" xmlns="http://www.w3.org/2000/svg" xmlns:xlink="http://www.w3.org/1999/xlink" x="0px" y="0px"
	 viewBox="0 0 2000 2000" style="enable-background:new 0 0 2000 2000;" xml:space="preserve">
<style type="text/css">
	.st0{fill:#008080;}
	.st1{fill:#0F8083;}
	.st2{fill:url(#SVGID_1_);}
	.st3{fill:url(#SVGID_2_);}
	.st4{fill:url(#SVGID_3_);}
	.st5{fill:url(#SVGID_4_);}
	.st6{fill:url(#SVGID_5_);}
	.st7{fill:url(#SVGID_6_);}
	.st8{fill:url(#SVGID_7_);}
	.st9{fill:url(#SVGID_8_);}
	.st10{fill:url(#SVGID_9_);}
	.st11{fill:url(#SVGID_10_);}
	.st12{fill:url(#SVGID_11_);}
	.st13{fill:url(#SVGID_12_);}
	.st14{fill:url(#SVGID_13_);}
	.st15{fill:url(#SVGID_14_);}
	.st16{fill:url(#SVGID_15_);}
	.st17{fill:url(#SVGID_16_);}
	.st18{fill:url(#SVGID_17_);}
	.st19{fill:url(#SVGID_18_);}
	.st20{fill:url(#SVGID_19_);}
	.st21{fill:url(#SVGID_20_);}
	.st22{fill:url(#SVGID_21_);}
	.st23{fill:url(#SVGID_22_);}
	.st24{fill:url(#SVGID_23_);}
</style>
<g>
	<g>
		<g>
			<g>
				<path class="st0" d="M495.1,887.7c-5.4,0-9.6,1.3-12.7,4c-3.1,2.7-5.6,6.7-7.5,12.1l-51.4,150l-51.1-149.4
					c-2.1-5.8-4.6-10-7.5-12.7c-2.9-2.7-6.8-4-11.8-4c-5,0-9,1.3-12.1,4c-3.1,2.7-5.7,6.8-7.8,12.4l-52,147.5l-49.8-147.8
					c-1.9-5.6-4.3-9.7-7.5-12.3c-3.1-2.6-7.5-3.9-13-3.9c-7.7,0-13.1,2.3-16.3,6.8c-3.2,4.6-3.7,10.1-1.4,16.8l64.9,183.6
					c2.1,5.8,4.8,10,8.2,12.7c3.4,2.7,7.9,4,13.5,4s10-1.4,13.2-4c3.2-2.7,5.8-6.8,7.9-12.4L352,951l50.5,143.9
					c2.1,5.8,4.8,10,8.1,12.7c3.3,2.7,7.8,4,13.4,4s10-1.4,13.4-4c3.3-2.7,6-6.8,8.1-12.4l65.5-183.9c2.3-6.6,1.9-12.2-1.2-16.8
					C506.6,890,501.7,887.7,495.1,887.7z"/>
			</g>
			<g>
				<g>
					<path class="st0" d="M619.9,963.8c-11.6-6.4-25.3-9.6-41-9.6c-11.8,0-22.5,1.8-32,5.4c-9.5,3.6-17.7,8.9-24.5,15.8
						c-6.8,6.9-12.1,15.2-15.7,24.8c-3.6,9.6-5.4,20.6-5.4,32.8c0,16.2,3.2,30.2,9.6,42.1c6.4,11.9,15.4,21.1,27,27.5
						c11.6,6.4,25.3,9.6,41,9.6c11.8,0,22.5-1.8,32-5.4c9.5-3.6,17.7-8.9,24.5-15.8c6.8-6.9,12.1-15.3,15.7-25
						c3.6-9.7,5.4-20.7,5.4-32.9c0-16.1-3.2-30.1-9.6-41.9C640.5,979.3,631.4,970.2,619.9,963.8z M612.6,1060.6
						c-3.2,7.4-7.7,12.9-13.5,16.6c-5.8,3.7-12.5,5.6-20.2,5.6c-11.6,0-20.9-4.2-28-12.6c-7-8.4-10.6-20.8-10.6-37.1
						c0-11,1.6-20.1,4.8-27.5c3.2-7.3,7.7-12.8,13.5-16.5c5.8-3.6,12.5-5.4,20.2-5.4c11.6,0,20.9,4.1,28,12.3
						c7,8.2,10.6,20.6,10.6,37.1C617.4,1044.1,615.8,1053.2,612.6,1060.6z"/>
				</g>
			</g>
			<g>
				<path class="st0" d="M777.7,957.5c-2.6-2.6-6.1-3.7-10.4-3.3c-14.1,1.2-25.4,5.1-33.9,11.5c-6.1,4.6-10.8,10.8-14,18.6v-9.9
					c0-6.4-1.7-11.3-5-14.6c-3.3-3.3-8-5-14-5c-6,0-10.7,1.7-14,5c-3.3,3.3-5,8.2-5,14.6v117.4c0,6.4,1.7,11.3,5.1,14.8
					c3.4,3.4,8.3,5.1,14.8,5.1c6.4,0,11.3-1.7,14.6-5.1c3.3-3.4,5-8.3,5-14.8v-64.3c0-11.8,3.2-21,9.6-27.5
					c6.4-6.5,15.9-10.4,28.6-11.6l6.8-0.6c5.6-0.6,9.8-2.5,12.6-5.7c2.8-3.2,4-7.4,3.6-12.6C781.8,964,780.3,960,777.7,957.5z"/>
			</g>
			<g>
				<path class="st0" d="M882,1030.1l46.5-49.2c3.7-3.9,5.6-7.9,5.6-11.8c0-3.9-1.4-7.3-4.2-10.1c-2.8-2.8-6.9-4.2-12.3-4.2
					c-5.4,0-9.6,1.1-12.7,3.4c-3.1,2.3-6.7,5.5-10.9,9.6l-51.2,54h-0.6V907.3c0-6.4-1.7-11.3-5.1-14.6c-3.4-3.3-8.2-5-14.4-5
					c-6.2,0-11,1.7-14.3,5c-3.3,3.3-5,8.2-5,14.6v184.5c0,6.4,1.7,11.3,5,14.8c3.3,3.4,8.1,5.1,14.3,5.1c13,0,19.6-6.6,19.6-19.9
					v-50.3h0.6l54,56.5c4.1,4.6,7.9,8,11.3,10.3c3.4,2.3,8,3.4,13.8,3.4c4.8,0,8.7-1.3,11.8-3.9c3.1-2.6,4.8-5.9,5.1-9.9
					c0.3-4-1.4-8-5.1-12L882,1030.1z"/>
			</g>
		</g>
		<g>
			<g>
				<path class="st1" d="M495.1,887.7c-5.4,0-9.6,1.3-12.7,4c-3.1,2.7-5.6,6.7-7.5,12.1l-51.4,150l-51.1-149.4
					c-2.1-5.8-4.6-10-7.5-12.7c-2.9-2.7-6.8-4-11.8-4c-5,0-9,1.3-12.1,4c-3.1,2.7-5.7,6.8-7.8,12.4l-52,147.5l-49.8-147.8
					c-1.9-5.6-4.3-9.7-7.5-12.3c-3.1-2.6-7.5-3.9-13-3.9c-7.7,0-13.1,2.3-16.3,6.8c-3.2,4.6-3.7,10.1-1.4,16.8l64.9,183.6
					c2.1,5.8,4.8,10,8.2,12.7c3.4,2.7,7.9,4,13.5,4s10-1.4,13.2-4c3.2-2.7,5.8-6.8,7.9-12.4L352,951l50.5,143.9
					c2.1,5.8,4.8,10,8.1,12.7c3.3,2.7,7.8,4,13.4,4s10-1.4,13.4-4c3.3-2.7,6-6.8,8.1-12.4l65.5-183.9c2.3-6.6,1.9-12.2-1.2-16.8
					C506.6,890,501.7,887.7,495.1,887.7z"/>
				<path class="st1" d="M495.1,887.7c-5.4,0-9.6,1.3-12.7,4c-3.1,2.7-5.6,6.7-7.5,12.1l-51.4,150l-51.1-149.4
					c-2.1-5.8-4.6-10-7.5-12.7c-2.9-2.7-6.8-4-11.8-4c-5,0-9,1.3-12.1,4c-3.1,2.7-5.7,6.8-7.8,12.4l-52,147.5l-49.8-147.8
					c-1.9-5.6-4.3-9.7-7.5-12.3c-3.1-2.6-7.5-3.9-13-3.9c-7.7,0-13.1,2.3-16.3,6.8c-3.2,4.6-3.7,10.1-1.4,16.8l64.9,183.6
					c2.1,5.8,4.8,10,8.2,12.7c3.4,2.7,7.9,4,13.5,4s10-1.4,13.2-4c3.2-2.7,5.8-6.8,7.9-12.4L352,951l50.5,143.9
					c2.1,5.8,4.8,10,8.1,12.7c3.3,2.7,7.8,4,13.4,4s10-1.4,13.4-4c3.3-2.7,6-6.8,8.1-12.4l65.5-183.9c2.3-6.6,1.9-12.2-1.2-16.8
					C506.6,890,501.7,887.7,495.1,887.7z"/>
			</g>
			<g>
				<g>
					<path class="st1" d="M619.9,963.8c-11.6-6.4-25.3-9.6-41-9.6c-11.8,0-22.5,1.8-32,5.4c-9.5,3.6-17.7,8.9-24.5,15.8
						c-6.8,6.9-12.1,15.2-15.7,24.8c-3.6,9.6-5.4,20.6-5.4,32.8c0,16.2,3.2,30.2,9.6,42.1c6.4,11.9,15.4,21.1,27,27.5
						c11.6,6.4,25.3,9.6,41,9.6c11.8,0,22.5-1.8,32-5.4c9.5-3.6,17.7-8.9,24.5-15.8c6.8-6.9,12.1-15.3,15.7-25
						c3.6-9.7,5.4-20.7,5.4-32.9c0-16.1-3.2-30.1-9.6-41.9C640.5,979.3,631.4,970.2,619.9,963.8z M612.6,1060.6
						c-3.2,7.4-7.7,12.9-13.5,16.6c-5.8,3.7-12.5,5.6-20.2,5.6c-11.6,0-20.9-4.2-28-12.6c-7-8.4-10.6-20.8-10.6-37.1
						c0-11,1.6-20.1,4.8-27.5c3.2-7.3,7.7-12.8,13.5-16.5c5.8-3.6,12.5-5.4,20.2-5.4c11.6,0,20.9,4.1,28,12.3
						c7,8.2,10.6,20.6,10.6,37.1C617.4,1044.1,615.8,1053.2,612.6,1060.6z"/>
				</g>
				<g>
					<path class="st1" d="M619.9,963.8c-11.6-6.4-25.3-9.6-41-9.6c-11.8,0-22.5,1.8-32,5.4c-9.5,3.6-17.7,8.9-24.5,15.8
						c-6.8,6.9-12.1,15.2-15.7,24.8c-3.6,9.6-5.4,20.6-5.4,32.8c0,16.2,3.2,30.2,9.6,42.1c6.4,11.9,15.4,21.1,27,27.5
						c11.6,6.4,25.3,9.6,41,9.6c11.8,0,22.5-1.8,32-5.4c9.5-3.6,17.7-8.9,24.5-15.8c6.8-6.9,12.1-15.3,15.7-25
						c3.6-9.7,5.4-20.7,5.4-32.9c0-16.1-3.2-30.1-9.6-41.9C640.5,979.3,631.4,970.2,619.9,963.8z M612.6,1060.6
						c-3.2,7.4-7.7,12.9-13.5,16.6c-5.8,3.7-12.5,5.6-20.2,5.6c-11.6,0-20.9-4.2-28-12.6c-7-8.4-10.6-20.8-10.6-37.1
						c0-11,1.6-20.1,4.8-27.5c3.2-7.3,7.7-12.8,13.5-16.5c5.8-3.6,12.5-5.4,20.2-5.4c11.6,0,20.9,4.1,28,12.3
						c7,8.2,10.6,20.6,10.6,37.1C617.4,1044.1,615.8,1053.2,612.6,1060.6z"/>
				</g>
			</g>
			<g>
				<path class="st1" d="M777.7,957.5c-2.6-2.6-6.1-3.7-10.4-3.3c-14.1,1.2-25.4,5.1-33.9,11.5c-6.1,4.6-10.8,10.8-14,18.6v-9.9
					c0-6.4-1.7-11.3-5-14.6c-3.3-3.3-8-5-14-5c-6,0-10.7,1.7-14,5c-3.3,3.3-5,8.2-5,14.6v117.4c0,6.4,1.7,11.3,5.1,14.8
					c3.4,3.4,8.3,5.1,14.8,5.1c6.4,0,11.3-1.7,14.6-5.1c3.3-3.4,5-8.3,5-14.8v-64.3c0-11.8,3.2-21,9.6-27.5
					c6.4-6.5,15.9-10.4,28.6-11.6l6.8-0.6c5.6-0.6,9.8-2.5,12.6-5.7c2.8-3.2,4-7.4,3.6-12.6C781.8,964,780.3,960,777.7,957.5z"/>
				<path class="st1" d="M777.7,957.5c-2.6-2.6-6.1-3.7-10.4-3.3c-14.1,1.2-25.4,5.1-33.9,11.5c-6.1,4.6-10.8,10.8-14,18.6v-9.9
					c0-6.4-1.7-11.3-5-14.6c-3.3-3.3-8-5-14-5c-6,0-10.7,1.7-14,5c-3.3,3.3-5,8.2-5,14.6v117.4c0,6.4,1.7,11.3,5.1,14.8
					c3.4,3.4,8.3,5.1,14.8,5.1c6.4,0,11.3-1.7,14.6-5.1c3.3-3.4,5-8.3,5-14.8v-64.3c0-11.8,3.2-21,9.6-27.5
					c6.4-6.5,15.9-10.4,28.6-11.6l6.8-0.6c5.6-0.6,9.8-2.5,12.6-5.7c2.8-3.2,4-7.4,3.6-12.6C781.8,964,780.3,960,777.7,957.5z"/>
			</g>
			<g>
				<path class="st1" d="M882,1030.1l46.5-49.2c3.7-3.9,5.6-7.9,5.6-11.8c0-3.9-1.4-7.3-4.2-10.1c-2.8-2.8-6.9-4.2-12.3-4.2
					c-5.4,0-9.6,1.1-12.7,3.4c-3.1,2.3-6.7,5.5-10.9,9.6l-51.2,54h-0.6V907.3c0-6.4-1.7-11.3-5.1-14.6c-3.4-3.3-8.2-5-14.4-5
					c-6.2,0-11,1.7-14.3,5c-3.3,3.3-5,8.2-5,14.6v184.5c0,6.4,1.7,11.3,5,14.8c3.3,3.4,8.1,5.1,14.3,5.1c13,0,19.6-6.6,19.6-19.9
					v-50.3h0.6l54,56.5c4.1,4.6,7.9,8,11.3,10.3c3.4,2.3,8,3.4,13.8,3.4c4.8,0,8.7-1.3,11.8-3.9c3.1-2.6,4.8-5.9,5.1-9.9
					c0.3-4-1.4-8-5.1-12L882,1030.1z"/>
				<path class="st1" d="M882,1030.1l46.5-49.2c3.7-3.9,5.6-7.9,5.6-11.8c0-3.9-1.4-7.3-4.2-10.1c-2.8-2.8-6.9-4.2-12.3-4.2
					c-5.4,0-9.6,1.1-12.7,3.4c-3.1,2.3-6.7,5.5-10.9,9.6l-51.2,54h-0.6V907.3c0-6.4-1.7-11.3-5.1-14.6c-3.4-3.3-8.2-5-14.4-5
					c-6.2,0-11,1.7-14.3,5c-3.3,3.3-5,8.2-5,14.6v184.5c0,6.4,1.7,11.3,5,14.8c3.3,3.4,8.1,5.1,14.3,5.1c13,0,19.6-6.6,19.6-19.9
					v-50.3h0.6l54,56.5c4.1,4.6,7.9,8,11.3,10.3c3.4,2.3,8,3.4,13.8,3.4c4.8,0,8.7-1.3,11.8-3.9c3.1-2.6,4.8-5.9,5.1-9.9
					c0.3-4-1.4-8-5.1-12L882,1030.1z"/>
			</g>
		</g>
	</g>
	<g>
		<g>
			<g>
				<g>
					<path d="M1001.2,998L1001.2,998c0,8.7,7.1,15.8,15.8,15.8h22.4h42.1h44.8c5.4,0,9.4-1.3,12.1-4c2.7-2.7,4-6.6,4-11.8
						c0-5.2-1.3-9.1-4-11.8c-2.7-2.7-6.7-4-12.1-4h-48.8h-38.2h-22.4C1008.3,982.1,1001.2,989.2,1001.2,998z"/>
					<path d="M1001.2,1077.5v10.6c0,6.8,1.8,12.1,5.4,15.7c3.6,3.6,8.9,5.4,15.7,5.4h110.9c5.2,0,9.2-1.3,12-4
						c2.8-2.7,4.2-6.6,4.2-11.8c0-5.2-1.4-9.1-4.2-11.8c-2.8-2.7-6.8-4-12-4h-51.7h-42.1H1001.2z"/>
					<path d="M1145.2,917.7c2.8-2.8,4.2-6.8,4.2-12c0-5-1.4-8.8-4.2-11.5c-2.8-2.7-6.8-4-12-4h-110.9c-6.8,0-12.1,1.8-15.7,5.4
						c-3.6,3.6-5.4,8.9-5.4,15.7v10.6h38.2h35.9h57.9C1138.4,921.9,1142.4,920.5,1145.2,917.7z"/>
					<path d="M1254,1079.7c-1.5,0.2-2.9,0.4-4.3,0.5c-1.5,0.1-3,0.2-4.7,0.2c-7.5,0-13.2-2.3-17.2-6.8c-4-4.6-6.1-11.6-6.1-21.1
						v-145c0-6.4-1.7-11.3-5.1-14.6c-3.4-3.3-8.2-5-14.4-5c-6.2,0-11,1.7-14.3,5c-3.3,3.3-5,8.2-5,14.6v146.9
						c0,19.1,4.3,33.5,13,43.3c8.7,9.8,21.6,14.8,38.8,14.8c2.3,0,4.6-0.1,6.8-0.3c2.3-0.2,4.4-0.4,6.5-0.6
						c4.8-0.6,8.2-2.4,10.2-5.3c2.1-2.9,3.1-6.9,3.1-12.1c0-6-0.5-10-1.6-12C1258.9,1080,1256.9,1079.3,1254,1079.7z"/>
					<path d="M1383.7,961c-9.6-4.6-21.9-6.8-36.8-6.8c-7.2,0-15.3,0.8-24.1,2.5c-8.8,1.7-18,4.5-27.5,8.4c-3.9,1.5-6.7,3.7-8.4,6.7
						c-1.7,3-2.5,6.1-2.5,9.2c0,3.1,0.8,6,2.5,8.5c1.7,2.6,4,4.3,7,5.1c3,0.8,6.5,0.3,10.4-1.6c7.7-3.5,15-6,21.9-7.5
						c6.9-1.4,13.4-2.2,19.4-2.2c10.8,0,18.4,2.3,23,6.8c4.6,4.6,6.8,12,6.8,22.4v6.5h-10.9c-22,0-39.4,1.5-52.5,4.3
						c-13,2.9-22.5,7.6-28.3,14.1c-5.8,6.5-8.7,15.4-8.7,26.6c0,9.1,2.4,17.3,7.3,24.5c4.9,7.3,11.6,13,20.2,17.2
						c8.6,4.2,18.4,6.4,29.3,6.4c8.3,0,15.6-1.5,22.1-4.3c6.4-2.9,11.7-7,16-12.3c2.5-3.1,4.5-6.6,6.1-10.4v6.5
						c0,6.4,1.6,11.3,4.8,14.8c3.2,3.4,7.7,5.1,13.5,5.1c5.8,0,10.2-1.7,13.4-5.1c3.1-3.4,4.7-8.3,4.7-14.8v-74.5
						c0-14.5-2.4-26.3-7.1-35.6C1400.5,972.5,1393.3,965.6,1383.7,961z M1370.8,1067.6c-3.1,5.6-7.3,10-12.6,13.2
						c-5.3,3.2-11.3,4.8-18.2,4.8c-8.5,0-15.1-2.2-19.9-6.5c-4.8-4.3-7.1-9.9-7.1-16.8c0-5.4,1.6-9.6,4.8-12.6
						c3.2-3,8.6-5.1,16.3-6.4c7.7-1.2,17.9-1.9,30.7-1.9h10.6v6.8C1375.5,1055.5,1373.9,1062,1370.8,1067.6z"/>
					<path d="M1544.1,1078.1c-2.1,0.2-4.5,0.6-7.1,1.2c-2.7,0.6-5.8,0.9-9.3,0.9c-9.7,0-16.8-2.5-21.1-7.5c-4.3-5-6.5-12.4-6.5-22.4
						v-64h32.9c5,0,8.8-1.3,11.5-3.9c2.7-2.6,4-6.2,4-10.7c0-4.8-1.4-8.4-4-10.9c-2.7-2.5-6.5-3.7-11.5-3.7H1500V929
						c0-6.4-1.7-11.3-5-14.6c-3.3-3.3-8.1-5-14.3-5c-6.2,0-11,1.7-14.4,5c-3.4,3.3-5.1,8.2-5.1,14.6v28.3H1445
						c-5,0-8.8,1.2-11.5,3.7c-2.7,2.5-4,6.1-4,10.9c0,4.6,1.3,8.1,4,10.7c2.7,2.6,6.5,3.9,11.5,3.9h16.2v66.2c0,13,2.2,24,6.5,32.8
						c4.3,8.8,11,15.5,20,20c9,4.6,20.2,6.8,33.7,6.8c3.3,0,7.1-0.4,11.5-1.1c4.3-0.7,7.9-1.5,10.6-2.3c3.5-1.2,6-3.5,7.3-6.7
						c1.3-3.2,2-6.9,2-11c0-5.4-0.8-9-2.5-10.7C1548.7,1078.7,1546.6,1077.9,1544.1,1078.1z"/>
					<path d="M1703.3,1039.1c2.6-2,3.9-4.8,3.9-8.5c0-11.8-1.6-22.4-4.8-31.8c-3.2-9.4-7.9-17.4-14-24.1
						c-6.1-6.6-13.5-11.7-22.1-15.2c-8.6-3.5-18.3-5.3-29-5.3c-14.7,0-27.8,3.4-39.3,10.1c-11.5,6.7-20.5,16-27,27.8
						c-6.5,11.8-9.8,25.6-9.8,41.3c0,16.2,3.4,30.1,10.1,41.9c6.7,11.8,16.3,20.9,28.7,27.3c12.4,6.4,27.2,9.6,44.4,9.6
						c8.1,0,16.8-1.1,26.2-3.3c9.4-2.2,17.8-5.5,25-10.1c3.7-2.3,6.4-5,7.9-8.1c1.6-3.1,2.1-6.2,1.7-9.2c-0.4-3-1.6-5.5-3.6-7.6
						c-2-2.1-4.6-3.3-7.9-3.6c-3.3-0.3-7.1,0.8-11.5,3.3c-6,3.3-12.4,5.6-19.1,7c-6.7,1.4-12.8,2-18.2,2c-15.5,0-27.3-4.2-35.3-12.6
						c-6.3-6.7-10.1-16-11.4-28.1h93.9C1697,1042.1,1700.7,1041.1,1703.3,1039.1z M1616.6,986.6c6.1-4,13.5-6.1,22.2-6.1
						c7.9,0,14.4,1.7,19.7,5.1c5.3,3.4,9.3,8.3,12.1,14.8c2.3,5.3,3.7,11.8,4.1,19.3h-76.3c0.7-5.9,2.1-11.2,4.2-16
						C1605.9,996.4,1610.5,990.7,1616.6,986.6z"/>
				</g>
				<g>
					<path class="st0" d="M1001.2,998L1001.2,998c0,8.7,7.1,15.8,15.8,15.8h22.4h42.1h44.8c5.4,0,9.4-1.3,12.1-4
						c2.7-2.7,4-6.6,4-11.8c0-5.2-1.3-9.1-4-11.8c-2.7-2.7-6.7-4-12.1-4h-48.8h-38.2h-22.4C1008.3,982.1,1001.2,989.2,1001.2,998z"
						/>
					<path class="st0" d="M1001.2,1077.5v10.6c0,6.8,1.8,12.1,5.4,15.7c3.6,3.6,8.9,5.4,15.7,5.4h110.9c5.2,0,9.2-1.3,12-4
						c2.8-2.7,4.2-6.6,4.2-11.8c0-5.2-1.4-9.1-4.2-11.8c-2.8-2.7-6.8-4-12-4h-51.7h-42.1H1001.2z"/>
					<path class="st0" d="M1145.2,917.7c2.8-2.8,4.2-6.8,4.2-12c0-5-1.4-8.8-4.2-11.5c-2.8-2.7-6.8-4-12-4h-110.9
						c-6.8,0-12.1,1.8-15.7,5.4c-3.6,3.6-5.4,8.9-5.4,15.7v10.6h38.2h35.9h57.9C1138.4,921.9,1142.4,920.5,1145.2,917.7z"/>
					<path class="st0" d="M1254,1079.7c-1.5,0.2-2.9,0.4-4.3,0.5c-1.5,0.1-3,0.2-4.7,0.2c-7.5,0-13.2-2.3-17.2-6.8
						c-4-4.6-6.1-11.6-6.1-21.1v-145c0-6.4-1.7-11.3-5.1-14.6c-3.4-3.3-8.2-5-14.4-5c-6.2,0-11,1.7-14.3,5c-3.3,3.3-5,8.2-5,14.6
						v146.9c0,19.1,4.3,33.5,13,43.3c8.7,9.8,21.6,14.8,38.8,14.8c2.3,0,4.6-0.1,6.8-0.3c2.3-0.2,4.4-0.4,6.5-0.6
						c4.8-0.6,8.2-2.4,10.2-5.3c2.1-2.9,3.1-6.9,3.1-12.1c0-6-0.5-10-1.6-12C1258.9,1080,1256.9,1079.3,1254,1079.7z"/>
					<path class="st0" d="M1383.7,961c-9.6-4.6-21.9-6.8-36.8-6.8c-7.2,0-15.3,0.8-24.1,2.5c-8.8,1.7-18,4.5-27.5,8.4
						c-3.9,1.5-6.7,3.7-8.4,6.7c-1.7,3-2.5,6.1-2.5,9.2c0,3.1,0.8,6,2.5,8.5c1.7,2.6,4,4.3,7,5.1c3,0.8,6.5,0.3,10.4-1.6
						c7.7-3.5,15-6,21.9-7.5c6.9-1.4,13.4-2.2,19.4-2.2c10.8,0,18.4,2.3,23,6.8c4.6,4.6,6.8,12,6.8,22.4v6.5h-10.9
						c-22,0-39.4,1.5-52.5,4.3c-13,2.9-22.5,7.6-28.3,14.1c-5.8,6.5-8.7,15.4-8.7,26.6c0,9.1,2.4,17.3,7.3,24.5
						c4.9,7.3,11.6,13,20.2,17.2c8.6,4.2,18.4,6.4,29.3,6.4c8.3,0,15.6-1.5,22.1-4.3c6.4-2.9,11.7-7,16-12.3
						c2.5-3.1,4.5-6.6,6.1-10.4v6.5c0,6.4,1.6,11.3,4.8,14.8c3.2,3.4,7.7,5.1,13.5,5.1c5.8,0,10.2-1.7,13.4-5.1
						c3.1-3.4,4.7-8.3,4.7-14.8v-74.5c0-14.5-2.4-26.3-7.1-35.6C1400.5,972.5,1393.3,965.6,1383.7,961z M1370.8,1067.6
						c-3.1,5.6-7.3,10-12.6,13.2c-5.3,3.2-11.3,4.8-18.2,4.8c-8.5,0-15.1-2.2-19.9-6.5c-4.8-4.3-7.1-9.9-7.1-16.8
						c0-5.4,1.6-9.6,4.8-12.6c3.2-3,8.6-5.1,16.3-6.4c7.7-1.2,17.9-1.9,30.7-1.9h10.6v6.8C1375.5,1055.5,1373.9,1062,1370.8,1067.6z
						"/>
					<path class="st0" d="M1544.1,1078.1c-2.1,0.2-4.5,0.6-7.1,1.2c-2.7,0.6-5.8,0.9-9.3,0.9c-9.7,0-16.8-2.5-21.1-7.5
						c-4.3-5-6.5-12.4-6.5-22.4v-64h32.9c5,0,8.8-1.3,11.5-3.9c2.7-2.6,4-6.2,4-10.7c0-4.8-1.4-8.4-4-10.9
						c-2.7-2.5-6.5-3.7-11.5-3.7H1500V929c0-6.4-1.7-11.3-5-14.6c-3.3-3.3-8.1-5-14.3-5c-6.2,0-11,1.7-14.4,5
						c-3.4,3.3-5.1,8.2-5.1,14.6v28.3H1445c-5,0-8.8,1.2-11.5,3.7c-2.7,2.5-4,6.1-4,10.9c0,4.6,1.3,8.1,4,10.7
						c2.7,2.6,6.5,3.9,11.5,3.9h16.2v66.2c0,13,2.2,24,6.5,32.8c4.3,8.8,11,15.5,20,20c9,4.6,20.2,6.8,33.7,6.8
						c3.3,0,7.1-0.4,11.5-1.1c4.3-0.7,7.9-1.5,10.6-2.3c3.5-1.2,6-3.5,7.3-6.7c1.3-3.2,2-6.9,2-11c0-5.4-0.8-9-2.5-10.7
						C1548.7,1078.7,1546.6,1077.9,1544.1,1078.1z"/>
					<path class="st0" d="M1703.3,1039.1c2.6-2,3.9-4.8,3.9-8.5c0-11.8-1.6-22.4-4.8-31.8c-3.2-9.4-7.9-17.4-14-24.1
						c-6.1-6.6-13.5-11.7-22.1-15.2c-8.6-3.5-18.3-5.3-29-5.3c-14.7,0-27.8,3.4-39.3,10.1c-11.5,6.7-20.5,16-27,27.8
						c-6.5,11.8-9.8,25.6-9.8,41.3c0,16.2,3.4,30.1,10.1,41.9c6.7,11.8,16.3,20.9,28.7,27.3c12.4,6.4,27.2,9.6,44.4,9.6
						c8.1,0,16.8-1.1,26.2-3.3c9.4-2.2,17.8-5.5,25-10.1c3.7-2.3,6.4-5,7.9-8.1c1.6-3.1,2.1-6.2,1.7-9.2c-0.4-3-1.6-5.5-3.6-7.6
						c-2-2.1-4.6-3.3-7.9-3.6c-3.3-0.3-7.1,0.8-11.5,3.3c-6,3.3-12.4,5.6-19.1,7c-6.7,1.4-12.8,2-18.2,2c-15.5,0-27.3-4.2-35.3-12.6
						c-6.3-6.7-10.1-16-11.4-28.1h93.9C1697,1042.1,1700.7,1041.1,1703.3,1039.1z M1616.6,986.6c6.1-4,13.5-6.1,22.2-6.1
						c7.9,0,14.4,1.7,19.7,5.1c5.3,3.4,9.3,8.3,12.1,14.8c2.3,5.3,3.7,11.8,4.1,19.3h-76.3c0.7-5.9,2.1-11.2,4.2-16
						C1605.9,996.4,1610.5,990.7,1616.6,986.6z"/>
				</g>
			</g>
			<polygon class="st0" points="1766.7,1049.5 1736.2,1049.5 1736.2,1110.5 1797.2,1110.5 1797.2,1080 1766.7,1080 			"/>
			<rect x="1779.1" y="1038.4" class="st0" width="29.1" height="29.1"/>
		</g>
		<g>
			<g>
				<g>
					<linearGradient id="SVGID_1_" gradientUnits="userSpaceOnUse" x1="1808.2421" y1="1000" x2="1001.2285" y2="1000">
						<stop  offset="8.100558e-02" style="stop-color:#001372"/>
						<stop  offset="1" style="stop-color:#349ED0"/>
					</linearGradient>
					<path class="st2" d="M1001.2,998L1001.2,998c0,8.7,7.1,15.8,15.8,15.8h22.4h42.1h44.8c5.4,0,9.4-1.3,12.1-4
						c2.7-2.7,4-6.6,4-11.8c0-5.2-1.3-9.1-4-11.8c-2.7-2.7-6.7-4-12.1-4h-48.8h-38.2h-22.4C1008.3,982.1,1001.2,989.2,1001.2,998z"
						/>
					<linearGradient id="SVGID_2_" gradientUnits="userSpaceOnUse" x1="1808.2421" y1="1000" x2="1001.2285" y2="1000">
						<stop  offset="8.100558e-02" style="stop-color:#001372"/>
						<stop  offset="1" style="stop-color:#349ED0"/>
					</linearGradient>
					<path class="st3" d="M1001.2,1077.5v10.6c0,6.8,1.8,12.1,5.4,15.7c3.6,3.6,8.9,5.4,15.7,5.4h110.9c5.2,0,9.2-1.3,12-4
						c2.8-2.7,4.2-6.6,4.2-11.8c0-5.2-1.4-9.1-4.2-11.8c-2.8-2.7-6.8-4-12-4h-51.7h-42.1H1001.2z"/>
					<linearGradient id="SVGID_3_" gradientUnits="userSpaceOnUse" x1="1808.2421" y1="1000" x2="1001.2285" y2="1000">
						<stop  offset="8.100558e-02" style="stop-color:#001372"/>
						<stop  offset="1" style="stop-color:#349ED0"/>
					</linearGradient>
					<path class="st4" d="M1145.2,917.7c2.8-2.8,4.2-6.8,4.2-12c0-5-1.4-8.8-4.2-11.5c-2.8-2.7-6.8-4-12-4h-110.9
						c-6.8,0-12.1,1.8-15.7,5.4c-3.6,3.6-5.4,8.9-5.4,15.7v10.6h38.2h35.9h57.9C1138.4,921.9,1142.4,920.5,1145.2,917.7z"/>
					<linearGradient id="SVGID_4_" gradientUnits="userSpaceOnUse" x1="1808.2421" y1="1000" x2="1001.2285" y2="1000">
						<stop  offset="8.100558e-02" style="stop-color:#001372"/>
						<stop  offset="1" style="stop-color:#349ED0"/>
					</linearGradient>
					<path class="st5" d="M1254,1079.7c-1.5,0.2-2.9,0.4-4.3,0.5c-1.5,0.1-3,0.2-4.7,0.2c-7.5,0-13.2-2.3-17.2-6.8
						c-4-4.6-6.1-11.6-6.1-21.1v-145c0-6.4-1.7-11.3-5.1-14.6c-3.4-3.3-8.2-5-14.4-5c-6.2,0-11,1.7-14.3,5c-3.3,3.3-5,8.2-5,14.6
						v146.9c0,19.1,4.3,33.5,13,43.3c8.7,9.8,21.6,14.8,38.8,14.8c2.3,0,4.6-0.1,6.8-0.3c2.3-0.2,4.4-0.4,6.5-0.6
						c4.8-0.6,8.2-2.4,10.2-5.3c2.1-2.9,3.1-6.9,3.1-12.1c0-6-0.5-10-1.6-12C1258.9,1080,1256.9,1079.3,1254,1079.7z"/>
					<linearGradient id="SVGID_5_" gradientUnits="userSpaceOnUse" x1="1808.2421" y1="1000" x2="1001.2285" y2="1000">
						<stop  offset="8.100558e-02" style="stop-color:#001372"/>
						<stop  offset="1" style="stop-color:#349ED0"/>
					</linearGradient>
					<path class="st6" d="M1383.7,961c-9.6-4.6-21.9-6.8-36.8-6.8c-7.2,0-15.3,0.8-24.1,2.5c-8.8,1.7-18,4.5-27.5,8.4
						c-3.9,1.5-6.7,3.7-8.4,6.7c-1.7,3-2.5,6.1-2.5,9.2c0,3.1,0.8,6,2.5,8.5c1.7,2.6,4,4.3,7,5.1c3,0.8,6.5,0.3,10.4-1.6
						c7.7-3.5,15-6,21.9-7.5c6.9-1.4,13.4-2.2,19.4-2.2c10.8,0,18.4,2.3,23,6.8c4.6,4.6,6.8,12,6.8,22.4v6.5h-10.9
						c-22,0-39.4,1.5-52.5,4.3c-13,2.9-22.5,7.6-28.3,14.1c-5.8,6.5-8.7,15.4-8.7,26.6c0,9.1,2.4,17.3,7.3,24.5
						c4.9,7.3,11.6,13,20.2,17.2c8.6,4.2,18.4,6.4,29.3,6.4c8.3,0,15.6-1.5,22.1-4.3c6.4-2.9,11.7-7,16-12.3
						c2.5-3.1,4.5-6.6,6.1-10.4v6.5c0,6.4,1.6,11.3,4.8,14.8c3.2,3.4,7.7,5.1,13.5,5.1c5.8,0,10.2-1.7,13.4-5.1
						c3.1-3.4,4.7-8.3,4.7-14.8v-74.5c0-14.5-2.4-26.3-7.1-35.6C1400.5,972.5,1393.3,965.6,1383.7,961z M1370.8,1067.6
						c-3.1,5.6-7.3,10-12.6,13.2c-5.3,3.2-11.3,4.8-18.2,4.8c-8.5,0-15.1-2.2-19.9-6.5c-4.8-4.3-7.1-9.9-7.1-16.8
						c0-5.4,1.6-9.6,4.8-12.6c3.2-3,8.6-5.1,16.3-6.4c7.7-1.2,17.9-1.9,30.7-1.9h10.6v6.8C1375.5,1055.5,1373.9,1062,1370.8,1067.6z
						"/>
					<linearGradient id="SVGID_6_" gradientUnits="userSpaceOnUse" x1="1808.2421" y1="1000" x2="1001.2285" y2="1000">
						<stop  offset="8.100558e-02" style="stop-color:#001372"/>
						<stop  offset="1" style="stop-color:#349ED0"/>
					</linearGradient>
					<path class="st7" d="M1544.1,1078.1c-2.1,0.2-4.5,0.6-7.1,1.2c-2.7,0.6-5.8,0.9-9.3,0.9c-9.7,0-16.8-2.5-21.1-7.5
						c-4.3-5-6.5-12.4-6.5-22.4v-64h32.9c5,0,8.8-1.3,11.5-3.9c2.7-2.6,4-6.2,4-10.7c0-4.8-1.4-8.4-4-10.9
						c-2.7-2.5-6.5-3.7-11.5-3.7H1500V929c0-6.4-1.7-11.3-5-14.6c-3.3-3.3-8.1-5-14.3-5c-6.2,0-11,1.7-14.4,5
						c-3.4,3.3-5.1,8.2-5.1,14.6v28.3H1445c-5,0-8.8,1.2-11.5,3.7c-2.7,2.5-4,6.1-4,10.9c0,4.6,1.3,8.1,4,10.7
						c2.7,2.6,6.5,3.9,11.5,3.9h16.2v66.2c0,13,2.2,24,6.5,32.8c4.3,8.8,11,15.5,20,20c9,4.6,20.2,6.8,33.7,6.8
						c3.3,0,7.1-0.4,11.5-1.1c4.3-0.7,7.9-1.5,10.6-2.3c3.5-1.2,6-3.5,7.3-6.7c1.3-3.2,2-6.9,2-11c0-5.4-0.8-9-2.5-10.7
						C1548.7,1078.7,1546.6,1077.9,1544.1,1078.1z"/>
					<linearGradient id="SVGID_7_" gradientUnits="userSpaceOnUse" x1="1808.2421" y1="1000" x2="1001.2285" y2="1000">
						<stop  offset="8.100558e-02" style="stop-color:#001372"/>
						<stop  offset="1" style="stop-color:#349ED0"/>
					</linearGradient>
					<path class="st8" d="M1703.3,1039.1c2.6-2,3.9-4.8,3.9-8.5c0-11.8-1.6-22.4-4.8-31.8c-3.2-9.4-7.9-17.4-14-24.1
						c-6.1-6.6-13.5-11.7-22.1-15.2c-8.6-3.5-18.3-5.3-29-5.3c-14.7,0-27.8,3.4-39.3,10.1c-11.5,6.7-20.5,16-27,27.8
						c-6.5,11.8-9.8,25.6-9.8,41.3c0,16.2,3.4,30.1,10.1,41.9c6.7,11.8,16.3,20.9,28.7,27.3c12.4,6.4,27.2,9.6,44.4,9.6
						c8.1,0,16.8-1.1,26.2-3.3c9.4-2.2,17.8-5.5,25-10.1c3.7-2.3,6.4-5,7.9-8.1c1.6-3.1,2.1-6.2,1.7-9.2c-0.4-3-1.6-5.5-3.6-7.6
						c-2-2.1-4.6-3.3-7.9-3.6c-3.3-0.3-7.1,0.8-11.5,3.3c-6,3.3-12.4,5.6-19.1,7c-6.7,1.4-12.8,2-18.2,2c-15.5,0-27.3-4.2-35.3-12.6
						c-6.3-6.7-10.1-16-11.4-28.1h93.9C1697,1042.1,1700.7,1041.1,1703.3,1039.1z M1616.6,986.6c6.1-4,13.5-6.1,22.2-6.1
						c7.9,0,14.4,1.7,19.7,5.1c5.3,3.4,9.3,8.3,12.1,14.8c2.3,5.3,3.7,11.8,4.1,19.3h-76.3c0.7-5.9,2.1-11.2,4.2-16
						C1605.9,996.4,1610.5,990.7,1616.6,986.6z"/>
				</g>
				<g>
					<linearGradient id="SVGID_8_" gradientUnits="userSpaceOnUse" x1="1808.2421" y1="1000" x2="1001.2285" y2="1000">
						<stop  offset="8.100558e-02" style="stop-color:#001372"/>
						<stop  offset="1" style="stop-color:#349ED0"/>
					</linearGradient>
					<path class="st9" d="M1001.2,998L1001.2,998c0,8.7,7.1,15.8,15.8,15.8h22.4h42.1h44.8c5.4,0,9.4-1.3,12.1-4
						c2.7-2.7,4-6.6,4-11.8c0-5.2-1.3-9.1-4-11.8c-2.7-2.7-6.7-4-12.1-4h-48.8h-38.2h-22.4C1008.3,982.1,1001.2,989.2,1001.2,998z"
						/>
					<linearGradient id="SVGID_9_" gradientUnits="userSpaceOnUse" x1="1808.2421" y1="1000" x2="1001.2285" y2="1000">
						<stop  offset="8.100558e-02" style="stop-color:#001372"/>
						<stop  offset="1" style="stop-color:#349ED0"/>
					</linearGradient>
					<path class="st10" d="M1001.2,1077.5v10.6c0,6.8,1.8,12.1,5.4,15.7c3.6,3.6,8.9,5.4,15.7,5.4h110.9c5.2,0,9.2-1.3,12-4
						c2.8-2.7,4.2-6.6,4.2-11.8c0-5.2-1.4-9.1-4.2-11.8c-2.8-2.7-6.8-4-12-4h-51.7h-42.1H1001.2z"/>
					<linearGradient id="SVGID_10_" gradientUnits="userSpaceOnUse" x1="1808.2421" y1="1000" x2="1001.2285" y2="1000">
						<stop  offset="8.100558e-02" style="stop-color:#001372"/>
						<stop  offset="1" style="stop-color:#349ED0"/>
					</linearGradient>
					<path class="st11" d="M1145.2,917.7c2.8-2.8,4.2-6.8,4.2-12c0-5-1.4-8.8-4.2-11.5c-2.8-2.7-6.8-4-12-4h-110.9
						c-6.8,0-12.1,1.8-15.7,5.4c-3.6,3.6-5.4,8.9-5.4,15.7v10.6h38.2h35.9h57.9C1138.4,921.9,1142.4,920.5,1145.2,917.7z"/>
					<linearGradient id="SVGID_11_" gradientUnits="userSpaceOnUse" x1="1808.2421" y1="1000" x2="1001.2285" y2="1000">
						<stop  offset="8.100558e-02" style="stop-color:#001372"/>
						<stop  offset="1" style="stop-color:#349ED0"/>
					</linearGradient>
					<path class="st12" d="M1254,1079.7c-1.5,0.2-2.9,0.4-4.3,0.5c-1.5,0.1-3,0.2-4.7,0.2c-7.5,0-13.2-2.3-17.2-6.8
						c-4-4.6-6.1-11.6-6.1-21.1v-145c0-6.4-1.7-11.3-5.1-14.6c-3.4-3.3-8.2-5-14.4-5c-6.2,0-11,1.7-14.3,5c-3.3,3.3-5,8.2-5,14.6
						v146.9c0,19.1,4.3,33.5,13,43.3c8.7,9.8,21.6,14.8,38.8,14.8c2.3,0,4.6-0.1,6.8-0.3c2.3-0.2,4.4-0.4,6.5-0.6
						c4.8-0.6,8.2-2.4,10.2-5.3c2.1-2.9,3.1-6.9,3.1-12.1c0-6-0.5-10-1.6-12C1258.9,1080,1256.9,1079.3,1254,1079.7z"/>
					<linearGradient id="SVGID_12_" gradientUnits="userSpaceOnUse" x1="1808.2421" y1="1000" x2="1001.2285" y2="1000">
						<stop  offset="8.100558e-02" style="stop-color:#001372"/>
						<stop  offset="1" style="stop-color:#349ED0"/>
					</linearGradient>
					<path class="st13" d="M1383.7,961c-9.6-4.6-21.9-6.8-36.8-6.8c-7.2,0-15.3,0.8-24.1,2.5c-8.8,1.7-18,4.5-27.5,8.4
						c-3.9,1.5-6.7,3.7-8.4,6.7c-1.7,3-2.5,6.1-2.5,9.2c0,3.1,0.8,6,2.5,8.5c1.7,2.6,4,4.3,7,5.1c3,0.8,6.5,0.3,10.4-1.6
						c7.7-3.5,15-6,21.9-7.5c6.9-1.4,13.4-2.2,19.4-2.2c10.8,0,18.4,2.3,23,6.8c4.6,4.6,6.8,12,6.8,22.4v6.5h-10.9
						c-22,0-39.4,1.5-52.5,4.3c-13,2.9-22.5,7.6-28.3,14.1c-5.8,6.5-8.7,15.4-8.7,26.6c0,9.1,2.4,17.3,7.3,24.5
						c4.9,7.3,11.6,13,20.2,17.2c8.6,4.2,18.4,6.4,29.3,6.4c8.3,0,15.6-1.5,22.1-4.3c6.4-2.9,11.7-7,16-12.3
						c2.5-3.1,4.5-6.6,6.1-10.4v6.5c0,6.4,1.6,11.3,4.8,14.8c3.2,3.4,7.7,5.1,13.5,5.1c5.8,0,10.2-1.7,13.4-5.1
						c3.1-3.4,4.7-8.3,4.7-14.8v-74.5c0-14.5-2.4-26.3-7.1-35.6C1400.5,972.5,1393.3,965.6,1383.7,961z M1370.8,1067.6
						c-3.1,5.6-7.3,10-12.6,13.2c-5.3,3.2-11.3,4.8-18.2,4.8c-8.5,0-15.1-2.2-19.9-6.5c-4.8-4.3-7.1-9.9-7.1-16.8
						c0-5.4,1.6-9.6,4.8-12.6c3.2-3,8.6-5.1,16.3-6.4c7.7-1.2,17.9-1.9,30.7-1.9h10.6v6.8C1375.5,1055.5,1373.9,1062,1370.8,1067.6z
						"/>
					<linearGradient id="SVGID_13_" gradientUnits="userSpaceOnUse" x1="1808.2421" y1="1000" x2="1001.2285" y2="1000">
						<stop  offset="8.100558e-02" style="stop-color:#001372"/>
						<stop  offset="1" style="stop-color:#349ED0"/>
					</linearGradient>
					<path class="st14" d="M1544.1,1078.1c-2.1,0.2-4.5,0.6-7.1,1.2c-2.7,0.6-5.8,0.9-9.3,0.9c-9.7,0-16.8-2.5-21.1-7.5
						c-4.3-5-6.5-12.4-6.5-22.4v-64h32.9c5,0,8.8-1.3,11.5-3.9c2.7-2.6,4-6.2,4-10.7c0-4.8-1.4-8.4-4-10.9
						c-2.7-2.5-6.5-3.7-11.5-3.7H1500V929c0-6.4-1.7-11.3-5-14.6c-3.3-3.3-8.1-5-14.3-5c-6.2,0-11,1.7-14.4,5
						c-3.4,3.3-5.1,8.2-5.1,14.6v28.3H1445c-5,0-8.8,1.2-11.5,3.7c-2.7,2.5-4,6.1-4,10.9c0,4.6,1.3,8.1,4,10.7
						c2.7,2.6,6.5,3.9,11.5,3.9h16.2v66.2c0,13,2.2,24,6.5,32.8c4.3,8.8,11,15.5,20,20c9,4.6,20.2,6.8,33.7,6.8
						c3.3,0,7.1-0.4,11.5-1.1c4.3-0.7,7.9-1.5,10.6-2.3c3.5-1.2,6-3.5,7.3-6.7c1.3-3.2,2-6.9,2-11c0-5.4-0.8-9-2.5-10.7
						C1548.7,1078.7,1546.6,1077.9,1544.1,1078.1z"/>
					<linearGradient id="SVGID_14_" gradientUnits="userSpaceOnUse" x1="1808.2421" y1="1000" x2="1001.2285" y2="1000">
						<stop  offset="8.100558e-02" style="stop-color:#001372"/>
						<stop  offset="1" style="stop-color:#349ED0"/>
					</linearGradient>
					<path class="st15" d="M1703.3,1039.1c2.6-2,3.9-4.8,3.9-8.5c0-11.8-1.6-22.4-4.8-31.8c-3.2-9.4-7.9-17.4-14-24.1
						c-6.1-6.6-13.5-11.7-22.1-15.2c-8.6-3.5-18.3-5.3-29-5.3c-14.7,0-27.8,3.4-39.3,10.1c-11.5,6.7-20.5,16-27,27.8
						c-6.5,11.8-9.8,25.6-9.8,41.3c0,16.2,3.4,30.1,10.1,41.9c6.7,11.8,16.3,20.9,28.7,27.3c12.4,6.4,27.2,9.6,44.4,9.6
						c8.1,0,16.8-1.1,26.2-3.3c9.4-2.2,17.8-5.5,25-10.1c3.7-2.3,6.4-5,7.9-8.1c1.6-3.1,2.1-6.2,1.7-9.2c-0.4-3-1.6-5.5-3.6-7.6
						c-2-2.1-4.6-3.3-7.9-3.6c-3.3-0.3-7.1,0.8-11.5,3.3c-6,3.3-12.4,5.6-19.1,7c-6.7,1.4-12.8,2-18.2,2c-15.5,0-27.3-4.2-35.3-12.6
						c-6.3-6.7-10.1-16-11.4-28.1h93.9C1697,1042.1,1700.7,1041.1,1703.3,1039.1z M1616.6,986.6c6.1-4,13.5-6.1,22.2-6.1
						c7.9,0,14.4,1.7,19.7,5.1c5.3,3.4,9.3,8.3,12.1,14.8c2.3,5.3,3.7,11.8,4.1,19.3h-76.3c0.7-5.9,2.1-11.2,4.2-16
						C1605.9,996.4,1610.5,990.7,1616.6,986.6z"/>
				</g>
				<g>
					<linearGradient id="SVGID_15_" gradientUnits="userSpaceOnUse" x1="1808.2421" y1="1000" x2="1001.2285" y2="1000">
						<stop  offset="8.100558e-02" style="stop-color:#001372"/>
						<stop  offset="1" style="stop-color:#349ED0"/>
					</linearGradient>
					<path class="st16" d="M1001.2,998L1001.2,998c0,8.7,7.1,15.8,15.8,15.8h22.4h42.1h44.8c5.4,0,9.4-1.3,12.1-4
						c2.7-2.7,4-6.6,4-11.8c0-5.2-1.3-9.1-4-11.8c-2.7-2.7-6.7-4-12.1-4h-48.8h-38.2h-22.4C1008.3,982.1,1001.2,989.2,1001.2,998z"
						/>
					<linearGradient id="SVGID_16_" gradientUnits="userSpaceOnUse" x1="1808.2421" y1="1000" x2="1001.2285" y2="1000">
						<stop  offset="8.100558e-02" style="stop-color:#001372"/>
						<stop  offset="1" style="stop-color:#349ED0"/>
					</linearGradient>
					<path class="st17" d="M1001.2,1077.5v10.6c0,6.8,1.8,12.1,5.4,15.7c3.6,3.6,8.9,5.4,15.7,5.4h110.9c5.2,0,9.2-1.3,12-4
						c2.8-2.7,4.2-6.6,4.2-11.8c0-5.2-1.4-9.1-4.2-11.8c-2.8-2.7-6.8-4-12-4h-51.7h-42.1H1001.2z"/>
					<linearGradient id="SVGID_17_" gradientUnits="userSpaceOnUse" x1="1808.2421" y1="1000" x2="1001.2285" y2="1000">
						<stop  offset="8.100558e-02" style="stop-color:#001372"/>
						<stop  offset="1" style="stop-color:#349ED0"/>
					</linearGradient>
					<path class="st18" d="M1145.2,917.7c2.8-2.8,4.2-6.8,4.2-12c0-5-1.4-8.8-4.2-11.5c-2.8-2.7-6.8-4-12-4h-110.9
						c-6.8,0-12.1,1.8-15.7,5.4c-3.6,3.6-5.4,8.9-5.4,15.7v10.6h38.2h35.9h57.9C1138.4,921.9,1142.4,920.5,1145.2,917.7z"/>
					<linearGradient id="SVGID_18_" gradientUnits="userSpaceOnUse" x1="1808.2421" y1="1000" x2="1001.2285" y2="1000">
						<stop  offset="8.100558e-02" style="stop-color:#001372"/>
						<stop  offset="1" style="stop-color:#349ED0"/>
					</linearGradient>
					<path class="st19" d="M1254,1079.7c-1.5,0.2-2.9,0.4-4.3,0.5c-1.5,0.1-3,0.2-4.7,0.2c-7.5,0-13.2-2.3-17.2-6.8
						c-4-4.6-6.1-11.6-6.1-21.1v-145c0-6.4-1.7-11.3-5.1-14.6c-3.4-3.3-8.2-5-14.4-5c-6.2,0-11,1.7-14.3,5c-3.3,3.3-5,8.2-5,14.6
						v146.9c0,19.1,4.3,33.5,13,43.3c8.7,9.8,21.6,14.8,38.8,14.8c2.3,0,4.6-0.1,6.8-0.3c2.3-0.2,4.4-0.4,6.5-0.6
						c4.8-0.6,8.2-2.4,10.2-5.3c2.1-2.9,3.1-6.9,3.1-12.1c0-6-0.5-10-1.6-12C1258.9,1080,1256.9,1079.3,1254,1079.7z"/>
					<linearGradient id="SVGID_19_" gradientUnits="userSpaceOnUse" x1="1808.2421" y1="1000" x2="1001.2285" y2="1000">
						<stop  offset="8.100558e-02" style="stop-color:#001372"/>
						<stop  offset="1" style="stop-color:#349ED0"/>
					</linearGradient>
					<path class="st20" d="M1383.7,961c-9.6-4.6-21.9-6.8-36.8-6.8c-7.2,0-15.3,0.8-24.1,2.5c-8.8,1.7-18,4.5-27.5,8.4
						c-3.9,1.5-6.7,3.7-8.4,6.7c-1.7,3-2.5,6.1-2.5,9.2c0,3.1,0.8,6,2.5,8.5c1.7,2.6,4,4.3,7,5.1c3,0.8,6.5,0.3,10.4-1.6
						c7.7-3.5,15-6,21.9-7.5c6.9-1.4,13.4-2.2,19.4-2.2c10.8,0,18.4,2.3,23,6.8c4.6,4.6,6.8,12,6.8,22.4v6.5h-10.9
						c-22,0-39.4,1.5-52.5,4.3c-13,2.9-22.5,7.6-28.3,14.1c-5.8,6.5-8.7,15.4-8.7,26.6c0,9.1,2.4,17.3,7.3,24.5
						c4.9,7.3,11.6,13,20.2,17.2c8.6,4.2,18.4,6.4,29.3,6.4c8.3,0,15.6-1.5,22.1-4.3c6.4-2.9,11.7-7,16-12.3
						c2.5-3.1,4.5-6.6,6.1-10.4v6.5c0,6.4,1.6,11.3,4.8,14.8c3.2,3.4,7.7,5.1,13.5,5.1c5.8,0,10.2-1.7,13.4-5.1
						c3.1-3.4,4.7-8.3,4.7-14.8v-74.5c0-14.5-2.4-26.3-7.1-35.6C1400.5,972.5,1393.3,965.6,1383.7,961z M1370.8,1067.6
						c-3.1,5.6-7.3,10-12.6,13.2c-5.3,3.2-11.3,4.8-18.2,4.8c-8.5,0-15.1-2.2-19.9-6.5c-4.8-4.3-7.1-9.9-7.1-16.8
						c0-5.4,1.6-9.6,4.8-12.6c3.2-3,8.6-5.1,16.3-6.4c7.7-1.2,17.9-1.9,30.7-1.9h10.6v6.8C1375.5,1055.5,1373.9,1062,1370.8,1067.6z
						"/>
					<linearGradient id="SVGID_20_" gradientUnits="userSpaceOnUse" x1="1808.2421" y1="1000" x2="1001.2285" y2="1000">
						<stop  offset="8.100558e-02" style="stop-color:#001372"/>
						<stop  offset="1" style="stop-color:#349ED0"/>
					</linearGradient>
					<path class="st21" d="M1544.1,1078.1c-2.1,0.2-4.5,0.6-7.1,1.2c-2.7,0.6-5.8,0.9-9.3,0.9c-9.7,0-16.8-2.5-21.1-7.5
						c-4.3-5-6.5-12.4-6.5-22.4v-64h32.9c5,0,8.8-1.3,11.5-3.9c2.7-2.6,4-6.2,4-10.7c0-4.8-1.4-8.4-4-10.9
						c-2.7-2.5-6.5-3.7-11.5-3.7H1500V929c0-6.4-1.7-11.3-5-14.6c-3.3-3.3-8.1-5-14.3-5c-6.2,0-11,1.7-14.4,5
						c-3.4,3.3-5.1,8.2-5.1,14.6v28.3H1445c-5,0-8.8,1.2-11.5,3.7c-2.7,2.5-4,6.1-4,10.9c0,4.6,1.3,8.1,4,10.7
						c2.7,2.6,6.5,3.9,11.5,3.9h16.2v66.2c0,13,2.2,24,6.5,32.8c4.3,8.8,11,15.5,20,20c9,4.6,20.2,6.8,33.7,6.8
						c3.3,0,7.1-0.4,11.5-1.1c4.3-0.7,7.9-1.5,10.6-2.3c3.5-1.2,6-3.5,7.3-6.7c1.3-3.2,2-6.9,2-11c0-5.4-0.8-9-2.5-10.7
						C1548.7,1078.7,1546.6,1077.9,1544.1,1078.1z"/>
					<linearGradient id="SVGID_21_" gradientUnits="userSpaceOnUse" x1="1808.2421" y1="1000" x2="1001.2285" y2="1000">
						<stop  offset="8.100558e-02" style="stop-color:#001372"/>
						<stop  offset="1" style="stop-color:#349ED0"/>
					</linearGradient>
					<path class="st22" d="M1703.3,1039.1c2.6-2,3.9-4.8,3.9-8.5c0-11.8-1.6-22.4-4.8-31.8c-3.2-9.4-7.9-17.4-14-24.1
						c-6.1-6.6-13.5-11.7-22.1-15.2c-8.6-3.5-18.3-5.3-29-5.3c-14.7,0-27.8,3.4-39.3,10.1c-11.5,6.7-20.5,16-27,27.8
						c-6.5,11.8-9.8,25.6-9.8,41.3c0,16.2,3.4,30.1,10.1,41.9c6.7,11.8,16.3,20.9,28.7,27.3c12.4,6.4,27.2,9.6,44.4,9.6
						c8.1,0,16.8-1.1,26.2-3.3c9.4-2.2,17.8-5.5,25-10.1c3.7-2.3,6.4-5,7.9-8.1c1.6-3.1,2.1-6.2,1.7-9.2c-0.4-3-1.6-5.5-3.6-7.6
						c-2-2.1-4.6-3.3-7.9-3.6c-3.3-0.3-7.1,0.8-11.5,3.3c-6,3.3-12.4,5.6-19.1,7c-6.7,1.4-12.8,2-18.2,2c-15.5,0-27.3-4.2-35.3-12.6
						c-6.3-6.7-10.1-16-11.4-28.1h93.9C1697,1042.1,1700.7,1041.1,1703.3,1039.1z M1616.6,986.6c6.1-4,13.5-6.1,22.2-6.1
						c7.9,0,14.4,1.7,19.7,5.1c5.3,3.4,9.3,8.3,12.1,14.8c2.3,5.3,3.7,11.8,4.1,19.3h-76.3c0.7-5.9,2.1-11.2,4.2-16
						C1605.9,996.4,1610.5,990.7,1616.6,986.6z"/>
				</g>
			</g>
			<linearGradient id="SVGID_22_" gradientUnits="userSpaceOnUse" x1="1808.2421" y1="1000" x2="1001.2285" y2="1000">
				<stop  offset="8.100558e-02" style="stop-color:#001372"/>
				<stop  offset="1" style="stop-color:#349ED0"/>
			</linearGradient>
			<polygon class="st23" points="1766.7,1049.5 1736.2,1049.5 1736.2,1110.5 1797.2,1110.5 1797.2,1080 1766.7,1080 			"/>
			<linearGradient id="SVGID_23_" gradientUnits="userSpaceOnUse" x1="1808.2421" y1="1000" x2="1001.2285" y2="1000">
				<stop  offset="8.100558e-02" style="stop-color:#001372"/>
				<stop  offset="1" style="stop-color:#349ED0"/>
			</linearGradient>
			<rect x="1779.1" y="1038.4" class="st24" width="29.1" height="29.1"/>
		</g>
	</g>
</g>
</svg>
